<?xml version="1.0" standalone="no"?>
<!DOCTYPE svg PUBLIC "-//W3C//DTD SVG 20010904//EN"
 "http://www.w3.org/TR/2001/REC-SVG-20010904/DTD/svg10.dtd">
<svg version="1.0" xmlns="http://www.w3.org/2000/svg"
 width="512.000000pt" height="512.000000pt" viewBox="0 0 512.000000 512.000000"
 preserveAspectRatio="xMidYMid meet">
<metadata>
Created by potrace 1.14, written by Peter Selinger 2001-2017
</metadata>
<g transform="translate(0.000000,512.000000) scale(0.100000,-0.100000)"
fill="#000000" stroke="none">
<path d="M2970 5111 c-122 -40 -192 -125 -290 -353 -19 -43 -36 -78 -39 -78
-3 0 -37 25 -76 56 -98 78 -137 96 -221 102 -126 8 -220 -42 -277 -146 -37
-67 -47 -131 -48 -290 0 -74 -4 -130 -8 -126 -4 5 -33 46 -64 90 -59 85 -70
94 -117 94 -61 0 -202 -133 -283 -268 -109 -178 -145 -428 -91 -627 20 -75 72
-189 113 -249 l32 -46 -150 0 -149 0 -26 -31 c-14 -17 -26 -34 -26 -39 0 -4
81 -502 181 -1106 99 -605 213 -1313 253 -1574 72 -460 74 -475 100 -497 l27
-23 1230 0 c820 0 1237 3 1249 10 11 6 24 19 30 30 6 11 35 182 65 381 31 198
143 896 250 1551 107 654 195 1203 195 1219 0 18 -10 39 -25 54 -23 24 -29 25
-169 25 l-144 0 47 79 c175 291 153 656 -55 928 -81 105 -178 183 -229 183
-44 0 -65 -19 -126 -111 l-54 -83 -6 160 c-3 87 -11 177 -17 199 -26 92 -103
174 -191 203 -19 7 -64 12 -100 12 -83 0 -138 -25 -243 -109 -43 -33 -78 -56
-78 -50 0 28 -140 299 -173 335 -55 61 -127 96 -206 100 -36 2 -77 0 -91 -5z
m148 -196 c31 -26 123 -204 162 -312 l22 -62 -49 -58 c-79 -93 -113 -139 -163
-223 -47 -78 -48 -78 -59 -53 -21 45 -111 175 -179 256 l-65 79 18 51 c36 106
133 294 165 320 43 36 106 37 148 2z m-751 -260 c91 -38 340 -283 441 -434
157 -234 219 -440 229 -759 l6 -182 -174 2 -173 3 -228 331 c-217 315 -229
335 -243 403 -40 190 -43 512 -6 583 17 31 70 68 99 68 7 0 29 -7 49 -15z
m1449 0 c50 -21 70 -74 78 -205 7 -119 -6 -314 -30 -426 -15 -75 -21 -84 -243
-408 l-228 -331 -85 -3 -85 -3 -6 188 c-5 190 -19 293 -58 425 l-20 68 35 75
c66 143 186 308 315 434 127 122 233 199 279 201 7 0 28 -7 48 -15z m-1667
-895 l327 -475 -321 -3 -320 -3 -56 60 c-105 113 -158 242 -166 401 -6 126 11
210 62 315 39 77 122 188 137 183 6 -2 158 -217 337 -478z m2260 306 c121
-246 82 -533 -99 -728 l-55 -59 -321 3 -321 3 268 390 c148 215 297 430 331
479 l61 90 52 -57 c29 -32 67 -86 84 -121z m230 -983 c0 -10 -84 -531 -187
-1158 l-188 -1140 -1222 -3 c-672 -1 -1222 2 -1222 6 0 12 -369 2262 -375
2290 l-5 22 1600 0 c1517 0 1600 -1 1599 -17z"/>
<path d="M4191 2734 c-17 -7 -35 -24 -40 -37 -11 -28 -181 -936 -181 -965 0
-30 40 -71 76 -78 25 -5 37 -1 62 23 31 28 32 32 117 488 47 253 85 476 85
496 0 61 -59 98 -119 73z"/>
<path d="M3953 1464 c-20 -10 -36 -28 -42 -48 -14 -45 -41 -193 -41 -228 0
-41 40 -78 85 -78 61 0 77 27 103 167 21 111 22 125 8 152 -9 16 -29 34 -47
40 -18 6 -32 11 -33 11 -1 0 -15 -8 -33 -16z"/>
</g>
</svg>
